Coordinates
version=1
nRows=18
nColumns=22
inDegrees=yes

Units are S.I. units (second, meters, Newtons, ...)
If the header above contains a line with 'inDegrees', this indicates whether rotational values are in degrees (yes) or radians (no).

endheader
time	pelvis_tilt	pelvis_list	pelvis_rotation	pelvis_tx	pelvis_ty	pelvis_tz	hip_flexion_r	hip_adduction_r	hip_rotation_r	knee_angle_r	ankle_angle_r	subtalar_angle_r	hip_flexion_l	hip_adduction_l	hip_rotation_l	knee_angle_l	ankle_angle_l	subtalar_angle_l	lumbar_extension	lumbar_bending	lumbar_rotation
      3.97000000	      2.83908921	      5.66132153	    165.60189465	      0.01364553	      0.97477630	     -0.66109775	    -11.39068060	      3.02847361	     -9.00539474	    -18.40451965	     15.83425559	     12.68707548	     29.21010886	     -8.27157479	    -23.51272535	    -10.59951620	      8.68801327	     -2.92532828	     -4.22918632	     -0.76357862	      5.52707484
      3.98000000	      2.74072631	      5.68452729	    165.41383375	      0.00145790	      0.97425907	     -0.66200521	    -11.87000624	      2.75646758	     -8.44212094	    -19.00914781	     15.12681265	     13.43849940	     29.04167380	     -8.75809760	    -24.81599625	    -11.85102149	      8.50890856	     -3.78799591	     -4.06857048	     -1.01358913	      5.88965322
      3.99000000	      2.61988720	      5.65044454	    165.25972786	     -0.01116737	      0.97400491	     -0.66274376	    -12.33681502	      2.40485948	     -7.92803599	    -19.65503652	     14.23449106	     14.27789642	     28.77979357	     -9.18742382	    -26.41754573	    -13.13249547	      8.14723108	     -4.72441758	     -3.86780687	     -1.32328193	      6.17254819
      4.00000000	      2.48557556	      5.56291545	    165.14439491	     -0.02414066	      0.97402746	     -0.66330047	    -12.76064471	      1.98299430	     -7.47976454	    -20.36721968	     13.19479120	     15.15194191	     28.43590379	     -9.55809553	    -28.27855350	    -14.38003899	      7.55584074	     -5.64368161	     -3.63063197	     -1.68973050	      6.39296563
      4.01000000	      2.35272896	      5.40974366	    165.08325306	     -0.03738607	      0.97432151	     -0.66361063	    -13.09320229	      1.48304012	     -7.11995956	    -21.18359210	     11.97254160	     16.05579481	     28.02571245	     -9.82868763	    -30.25444112	    -15.51991374	      6.75597401	     -6.54079307	     -3.34889295	     -2.11661760	      6.53650032
      4.02000000	      2.23581095	      5.18939802	    165.08071467	     -0.05081830	      0.97486753	     -0.66364192	    -13.29260181	      0.91013122	     -6.85082117	    -22.13624884	     10.56412018	     16.94093542	     27.57840808	     -9.97569858	    -32.18377411	    -16.53067172	      5.81086680	     -7.38814245	     -3.01678243	     -2.59871911	      6.59654098
      4.03000000	      2.14352320	      4.91692512	    165.14395407	     -0.06432044	      0.97563366	     -0.66334393	    -13.31891710	      0.27930448	     -6.69164093	    -23.27029052	      8.94717372	     17.78068183	     27.12383281	     -9.98162638	    -33.84950112	    -17.41044195	      4.77300714	     -8.19458547	     -2.64700805	     -3.11177365	      6.58323060
      4.04000000	      2.08976038	      4.60274770	    165.27061483	     -0.07782720	      0.97656404	     -0.66272689	    -13.15033631	     -0.39152369	     -6.62134489	    -24.59283979	      7.13417482	     18.49812135	     26.70473498	     -9.85115368	    -35.15031071	    -18.19903566	      3.73478998	     -8.94756115	     -2.23306219	     -3.63855323	      6.48338699
      4.05000000	      2.05819077	      4.27821028	    165.47467355	     -0.09124958	      0.97764224	     -0.66175557	    -12.79635638	     -1.07930957	     -6.66564668	    -26.11904062	      5.09415206	     19.10761548	     26.32431784	     -9.58369110	    -35.92894679	    -18.91182280	      2.74765066	     -9.74958504	     -1.81866216	     -4.14968673	      6.32319195
      4.06000000	      2.04195525	      3.95808183	    165.74542095	     -0.10454020	      0.97882610	     -0.66047512	    -12.26865053	     -1.77339026	     -6.80346823	    -27.84117877	      2.86327378	     19.56369046	     25.99300913	     -9.20550440	    -36.20122124	    -19.59056934	      1.88896230	    -10.61266430	     -1.41849986	     -4.63433547	      6.11180744
      4.07000000	      2.01992249	      3.66743718	    166.08565854	     -0.11766451	      0.98011029	     -0.65889343	    -11.60711896	     -2.45165948	     -7.00567349	    -29.73707086	      0.46707464	     19.88513594	     25.68825824	     -8.73927834	    -36.00462128	    -20.24231466	      1.21631654	    -11.52829508	     -1.07318715	     -5.06834602	      5.85198829
      4.08000000	      1.96600333	      3.42871579	    166.46591950	     -0.13062075	      0.98148325	     -0.65709422	    -10.85653028	     -3.09786700	     -7.21722774	    -31.78196144	     -2.04110944	     20.09550490	     25.36915843	     -8.24034290	    -35.51061863	    -20.89002921	      0.84516580	    -12.59733760	     -0.81311563	     -5.43622698	      5.55582054
      4.09000000	      1.87824382	      3.21863454	    166.88694534	     -0.14334832	      0.98290393	     -0.65508026	    -10.01417198	     -3.73916187	     -7.45136182	    -33.98267129	     -4.53594400	     20.23322883	     25.03029822	     -7.68974237	    -34.75251622	    -21.51848564	      0.69612281	    -13.54419549	     -0.64547567	     -5.76815215	      5.25584007
      4.10000000	      1.74626126	      3.04125071	    167.33391166	     -0.15584423	      0.98435461	     -0.65289945	     -9.10690189	     -4.36662313	     -7.67318115	    -36.31367991	     -6.92164287	     20.33563658	     24.64259744	     -7.11668474	    -33.86943467	    -22.12405871	      0.78037186	    -14.37931059	     -0.58132695	     -6.06145064	      4.95948141
      4.11000000	      1.57032497	      2.88536914	    167.79034945	     -0.16807821	      0.98581496	     -0.65058054	     -8.13475729	     -4.98651365	     -7.85278527	    -38.76676934	     -9.08588149	     20.42962207	     24.18547227	     -6.52691593	    -32.96226813	    -22.67776189	      1.07247568	    -15.04707230	     -0.62170735	     -6.32391468	      4.66707216
      4.12000000	      1.36272113	      2.73452620	    168.25082781	     -0.18004108	      0.98725742	     -0.64814241	     -7.09297289	     -5.60282306	     -7.97715731	    -41.31111625	    -10.93022649	     20.51027428	     23.65761373	     -5.91565460	    -32.08973526	    -23.15626673	      1.51814865	    -15.54965630	     -0.74581090	     -6.56980601	      4.39052792
      4.13000000	      1.13590110	      2.57987820	    168.70924651	     -0.19171576	      0.98866794	     -0.64561080	     -5.97753814	     -6.20977363	     -8.03030525	    -43.90676815	    -12.38953132	     20.56106473	     23.06296492	     -5.28589777	    -31.29460113	    -23.54255580	      2.05502914	    -15.88723792	     -0.93406014	     -6.80529337	      4.13884144
      4.14000000	      0.90800082	      2.41641566	    169.15721933	     -0.20309607	      0.99003173	     -0.64302429	     -4.78153254	     -6.78858346	     -7.97804331	    -46.50153812	    -13.42827259	     20.51649552	     22.41231336	     -4.64627096	    -30.62156682	    -23.82164213	      2.65243539	    -16.12849680	     -1.15910076	     -7.03104350	      3.89750946
